<svg
   width="50.828007mm"
   height="23.053631mm"
   viewBox="0 0 50.828007 23.053631"
   version="1.1"
   id="svg1"
   xml:space="preserve"
   xmlns="http://www.w3.org/2000/svg"
   xmlns:svg="http://www.w3.org/2000/svg"><defs
     id="defs1" /><g
     id="layer1"
     transform="translate(-50.085994,-174.93223)"><g
       id="g5"
       transform="matrix(0.33913257,0,0,0.33913257,50.115874,175.05687)"><path
         id="path5"
         style="fill:#d89f5d;fill-opacity:1;stroke-linecap:round;stroke-linejoin:round;stroke-miterlimit:0;paint-order:fill markers stroke"
         d="M 60.417586,8.6966275 C 55.997205,12.601051 16.484405,45.828514 14.494566,47.603294 c -1.989839,1.77477 -8.820095,8.60228 -11.021549,11.01587 -7.293416,9.17881 -2.86394899,10.37914 8.554517,7.26364 7.270564,-1.98376 18.82502,-6.3558 36.42579,-11.06637 10.235693,-2.73942 17.515164,-4.07483 26.410164,-4.07483 8.895,0 16.81133,1.35472 26.712922,4.22621 13.41094,3.88921 28.63598,8.57741 36.12304,10.91499 11.29802,3.52741 15.84793,1.91517 8.55452,-7.26364 -2.20146,-2.41359 -9.03171,-9.24111 -11.02155,-11.01587 C 133.24258,45.828504 93.729775,12.601052 89.309395,8.6966275 87.641082,7.2230436 78.787912,-0.36752105 74.518683,-0.36752105 c -4.26923,0 -12.431285,7.58924205 -14.101097,9.06414855 z" /><path
         id="path1-2"
         style="fill:#fcead9;fill-opacity:1;stroke:#70c4b9;stroke-width:0;stroke-linecap:round;stroke-miterlimit:0;paint-order:fill markers stroke"
         d="M 74.518688,9.9166205 8.518575,60.928494 74.518688,25.668126 140.51879,60.928494 Z" /></g></g></svg>
