<svg
    width="100%"
    height="100%"
    viewBox="0 0 15 15"
    version="1.1"
    xmlns="http://www.w3.org/2000/svg"
    xmlns:xlink="http://www.w3.org/1999/xlink"
    xml:space="preserve"
    style="fill-rule:evenodd;clip-rule:evenodd;stroke-linejoin:round;stroke-miterlimit:2;">
    <path d="M14.468,2.01l0,10.354c0,1.109 -0.9,2.01 -2.01,2.01l-10.449,0c-1.109,0 -2.01,-0.9 -2.01,-2.01l0,-10.354c0,-1.109 0.9,-2.01 2.01,-2.01l10.449,0c1.109,0 2.01,0.9 2.01,2.01Zm-13.468,2.398l0,7.956c0,0.557 0.452,1.01 1.01,1.01l10.449,0c0.557,0 1.01,-0.452 1.01,-1.01l0,-10.354c0,-0.557 -0.452,-1.01 -1.01,-1.01l-6.267,0l0,1.936c0,0.812 -0.659,1.471 -1.471,1.471l-3.72,0Zm1.08,1.959c-0.23,-0 -0.417,-0.187 -0.417,-0.417c0,-0.23 0.187,-0.417 0.417,-0.417l5.569,0c0.23,-0 0.417,0.187 0.417,0.417c0,0.23 -0.187,0.417 -0.417,0.417l-5.569,0Zm0,2.501c-0.23,-0 -0.417,-0.187 -0.417,-0.417c0,-0.23 0.187,-0.417 0.417,-0.417l5.569,0c0.23,-0 0.417,0.187 0.417,0.417c0,0.23 -0.187,0.417 -0.417,0.417l-5.569,0Zm5.514,-5.727c-0.23,0 -0.417,-0.187 -0.417,-0.417c-0,-0.23 0.187,-0.417 0.417,-0.417l4.694,0c0.23,0 0.417,0.187 0.417,0.417c-0,0.23 -0.187,0.417 -0.417,0.417l-4.694,0Zm-5.501,8.426c-0.23,-0 -0.417,-0.187 -0.417,-0.417c0,-0.23 0.187,-0.417 0.417,-0.417l10.062,0c0.23,-0 0.417,0.187 0.417,0.417c0,0.23 -0.187,0.417 -0.417,0.417l-10.062,0Zm10.66,-4.366l-3.65,2.204l0,-4.408l3.65,2.204Z" style="fill:url(#_Linear1);"/>
    <defs>
        <linearGradient id="_Linear1" x1="0" y1="0" x2="1" y2="0" gradientUnits="userSpaceOnUse" gradientTransform="matrix(16.376885,15.973667,-15.973667,16.376885,0,0)">
            <stop offset="0" style="stop-color:#b87fe1;stop-opacity:1"/>
            <stop offset="0.39" style="stop-color:#1248e9;stop-opacity:1"/>
            <stop offset="0.77" style="stop-color:#d37fa0;stop-opacity:1"/>
            <stop offset="1" style="stop-color:#6f5db6;stop-opacity:1"/>
        </linearGradient>
    </defs>
</svg>