<svg
   width="20.73823mm"
   height="18.654392mm"
   viewBox="0 0 20.73823 18.654392"
   version="1.1"
   id="svg1"
   xml:space="preserve"
   xmlns="http://www.w3.org/2000/svg"
   xmlns:svg="http://www.w3.org/2000/svg"><defs
     id="defs1" /><g
     id="g17"
     transform="translate(-265.91851,-231.04493)"><path
       id="path14"
       style="color:#000000;font-style:normal;font-variant:normal;font-weight:normal;font-stretch:normal;font-size:medium;line-height:normal;font-family:sans-serif;font-variant-ligatures:normal;font-variant-position:normal;font-variant-caps:normal;font-variant-numeric:normal;font-variant-alternates:normal;font-variant-east-asian:normal;font-feature-settings:normal;font-variation-settings:normal;text-indent:0;text-align:start;text-decoration-line:none;text-decoration-style:solid;text-decoration-color:#000000;letter-spacing:normal;word-spacing:normal;text-transform:none;writing-mode:lr-tb;direction:ltr;text-orientation:mixed;dominant-baseline:auto;baseline-shift:baseline;text-anchor:start;white-space:normal;shape-padding:0;shape-margin:0;inline-size:0;clip-rule:nonzero;display:inline;overflow:visible;visibility:visible;isolation:auto;mix-blend-mode:normal;color-interpolation:sRGB;color-interpolation-filters:linearRGB;solid-color:#000000;solid-opacity:1;vector-effect:none;fill:#d79455;fill-opacity:1;fill-rule:nonzero;stroke:none;stroke-width:0.563058;stroke-linecap:round;stroke-linejoin:round;stroke-miterlimit:0;stroke-dasharray:none;stroke-dashoffset:0;stroke-opacity:1;-inkscape-stroke:none;paint-order:fill markers stroke;color-rendering:auto;image-rendering:auto;shape-rendering:auto;text-rendering:auto;enable-background:accumulate;stop-color:#000000;stop-opacity:1"
       d="m 285.68179,240.04116 a 1,1 0 0 0 -1.02578,0.97462 c -0.0497,2.03681 -1.64975,3.32594 -2.82205,3.70107 -0.0585,0.0187 -1.06843,0.15357 -2.21692,0.19895 -1.1485,0.0454 -2.55798,0.061 -3.91966,0.061 -1.80187,0 -3.21362,-0.0224 -4.17132,-0.0403 v -2.52129 a 0.07512981,0.07512981 0 0 0 -0.11575,-0.0636 l -5.44618,3.50831 a 0.09893582,0.09893582 0 0 0 -0.002,0.16536 l 5.42448,3.65869 a 0.08941767,0.08941767 0 0 0 0.13952,-0.0744 v -2.67374 c 0.97458,0.0185 2.38239,0.0408 4.17132,0.0408 1.3767,0 2.80313,-0.0153 3.99769,-0.0625 1.19456,-0.0472 2.03531,-0.0649 2.74816,-0.29301 1.91323,-0.61223 4.1394,-2.53334 4.21317,-5.55676 a 1,1 0 0 0 -0.97461,-1.0232 z" /><path
       id="path17"
       style="color:#000000;font-style:normal;font-variant:normal;font-weight:normal;font-stretch:normal;font-size:medium;line-height:normal;font-family:sans-serif;font-variant-ligatures:normal;font-variant-position:normal;font-variant-caps:normal;font-variant-numeric:normal;font-variant-alternates:normal;font-variant-east-asian:normal;font-feature-settings:normal;font-variation-settings:normal;text-indent:0;text-align:start;text-decoration-line:none;text-decoration-style:solid;text-decoration-color:#000000;letter-spacing:normal;word-spacing:normal;text-transform:none;writing-mode:lr-tb;direction:ltr;text-orientation:mixed;dominant-baseline:auto;baseline-shift:baseline;text-anchor:start;white-space:normal;shape-padding:0;shape-margin:0;inline-size:0;clip-rule:nonzero;display:inline;overflow:visible;visibility:visible;isolation:auto;mix-blend-mode:normal;color-interpolation:sRGB;color-interpolation-filters:linearRGB;solid-color:#000000;solid-opacity:1;vector-effect:none;fill:#d79455;fill-opacity:1;fill-rule:nonzero;stroke:none;stroke-width:0.563058;stroke-linecap:round;stroke-linejoin:round;stroke-miterlimit:0;stroke-dasharray:none;stroke-dashoffset:0;stroke-opacity:1;-inkscape-stroke:none;paint-order:fill markers stroke;color-rendering:auto;image-rendering:auto;shape-rendering:auto;text-rendering:auto;enable-background:accumulate;stop-color:#000000;stop-opacity:1"
       d="m 266.89347,240.7031 a 1,1 0 0 0 1.02578,-0.97462 c 0.0497,-2.03681 1.64975,-3.32594 2.82205,-3.70107 0.0585,-0.0187 1.06843,-0.15357 2.21692,-0.19895 1.1485,-0.0454 2.55798,-0.061 3.91966,-0.061 1.80187,0 3.21362,0.0224 4.17132,0.0403 v 2.52129 a 0.07512981,0.07512981 0 0 0 0.11575,0.0636 l 5.44618,-3.50831 a 0.09893582,0.09893582 0 0 0 0.002,-0.16536 l -5.42448,-3.65869 a 0.08941767,0.08941767 0 0 0 -0.13952,0.0744 v 2.67374 c -0.97458,-0.0185 -2.38239,-0.0408 -4.17132,-0.0408 -1.3767,0 -2.80313,0.0153 -3.99769,0.0625 -1.19456,0.0472 -2.03531,0.0649 -2.74816,0.29301 -1.91323,0.61223 -4.1394,2.53334 -4.21317,5.55676 a 1,1 0 0 0 0.97461,1.0232 z" /></g></svg>
