<svg
    width="100%"
    height="100%"
    viewBox="0 0 16 13"
    version="1.1"
    xmlns="http://www.w3.org/2000/svg"
    xmlns:xlink="http://www.w3.org/1999/xlink"
    xml:space="preserve"
    style="fill-rule:evenodd;clip-rule:evenodd;stroke-linejoin:round;stroke-miterlimit:2;"
>
    <path d="M7.522,2.08c0.32,-0.373 1.893,-2.088 3.774,-2.08c2.435,0.012 3.76,2.105 3.748,3.819c-0.012,1.701 -1.641,3.22 -2.548,4.178c-0.84,0.887 -2.725,2.366 -3.558,3.124c-0.449,0.409 -1.415,1.235 -1.415,1.235c0,0 -0.968,-0.826 -1.417,-1.235c-0.833,-0.758 -2.718,-2.237 -3.558,-3.124c-0.907,-0.958 -2.536,-2.477 -2.548,-4.178c-0.012,-1.714 1.313,-3.807 3.748,-3.819c1.881,-0.009 3.454,1.706 3.774,2.08Z" style="fill:url(#_Linear1);"
    />
    <defs>
        <linearGradient id="_Linear1" x1="0" y1="0" x2="1" y2="0" gradientUnits="userSpaceOnUse" gradientTransform="matrix(0,12.356092,-12.356092,0,7.521713,0)">
            <stop offset="0" style="stop-color:#fb7279;stop-opacity:1"/>
            <stop offset="1" style="stop-color:#a562be;stop-opacity:1"/>
        </linearGradient>
    </defs>
</svg>