<svg
    width="100%"
    height="100%"
    viewBox="0 0 12 16"
    version="1.1"
    xmlns="http://www.w3.org/2000/svg"
    xml:space="preserve"
    style="fill-rule:evenodd;clip-rule:evenodd;stroke-linejoin:round;stroke-miterlimit:2;"
    >

    <g transform="matrix(1,0,0,1,-2911.184263,-2113.972303)">
        <g transform="matrix(1,0,0,1,1718.86965,301.108504)">
            <g transform="matrix(1,0,0,1,-1.19332,-0.136201)">
                <g transform="matrix(2.333333,0,0,1,-1601.8254,0)">
                    <path d="M1201,1825.572L1201,1829L1198,1821L1198,1820L1201,1813L1201,1816L1199.286,1820L1199.286,1821L1201,1825.572Z" style="fill:rgb(136,136,136);"/>
                </g>
                <g transform="matrix(2.333333,0,0,1,-1597.252946,0)">
                    <path d="M1201,1813L1201,1829L1198,1821L1198,1820L1201,1813Z" style="fill:rgb(136,136,136);"/>
                </g>
            </g>
        </g>
    </g>
</svg>
