<svg
   width="25.126335mm"
   height="18.306463mm"
   viewBox="0 0 25.126335 18.306463"
   version="1.1"
   id="svg1"
   xml:space="preserve"
   xmlns="http://www.w3.org/2000/svg"
   xmlns:svg="http://www.w3.org/2000/svg"><defs
     id="defs1" /><g
     id="layer1"
     transform="translate(-11.448919,-111.97223)"><g
       id="g13"
       transform="translate(34.108914,-118.95126)"><path
         id="path12"
         style="fill:#70c4b9;stroke-linecap:round;stroke-linejoin:round;stroke-miterlimit:0;paint-order:fill markers stroke"
         d="m -3.3889404,230.92441 a 0.07936228,0.07936228 0 0 0 -0.068213,0.0785 v 2.68304 c -0.4271252,0.0398 -0.8810196,0.10413 -1.3415202,0.20878 -2.3493034,0.53384 -4.4045176,2.07344 -5.7893104,3.80442 -2.570162,3.2127 -3.739228,5.21053 -5.281332,6.19342 -0.563791,0.35934 -2.066175,0.62901 -3.351216,0.67747 -1.285042,0.0485 -2.353862,-0.0408 -2.353862,-0.0408 a 1,1 0 0 0 -1.082104,0.91209 1,1 0 0 0 0.912606,1.08004 c 0,0 1.176952,0.10056 2.597257,0.047 1.420304,-0.0536 3.082926,-0.17807 4.353739,-0.98805 2.127107,-1.35575 3.27658,-3.51992 5.7655399,-6.63112 1.1308217,-1.41352 2.9117714,-2.70369 4.6720663,-3.10369 0.3008085,-0.0684 0.6030149,-0.11177 0.8981364,-0.14417 v 2.90163 a 0.09445505,0.09445505 0 0 0 0.1472778,0.0785 l 5.7298828,-3.86489 a 0.1045094,0.1045094 0 0 0 -0.00155,-0.17466 L -3.33468,230.9362 a 0.07936228,0.07936228 0 0 0 -0.05426,-0.0119 z" /><path
         id="path13"
         style="fill:#70c4b9;stroke-linecap:round;stroke-linejoin:round;stroke-miterlimit:0;paint-order:fill markers stroke"
         d="m -3.3889404,249.22916 a 0.07936228,0.07936228 0 0 1 -0.068213,-0.0785 v -2.68304 c -0.4271252,-0.0398 -0.8810196,-0.10413 -1.3415202,-0.20878 -2.3493034,-0.53384 -4.4045176,-2.07344 -5.7893104,-3.80442 -2.570162,-3.2127 -3.739228,-5.21053 -5.281332,-6.19342 -0.563791,-0.35934 -2.066175,-0.62901 -3.351216,-0.67747 -1.285042,-0.0485 -2.353862,0.0408 -2.353862,0.0408 a 1,1 0 0 1 -1.082104,-0.91209 1,1 0 0 1 0.912606,-1.08004 c 0,0 1.176952,-0.10056 2.597257,-0.047 1.420304,0.0536 3.082926,0.17807 4.353739,0.98805 2.127107,1.35575 3.27658,3.51992 5.7655399,6.63112 1.1308217,1.41352 2.9117714,2.70369 4.6720663,3.10369 0.3008085,0.0684 0.6030149,0.11177 0.8981364,0.14417 v -2.90163 a 0.09445505,0.09445505 0 0 1 0.1472778,-0.0786 l 5.7298828,3.86489 a 0.1045094,0.1045094 0 0 1 -0.00155,0.17466 l -5.7531372,3.70572 a 0.07936228,0.07936228 0 0 1 -0.05426,0.0119 z" /></g></g></svg>
