<svg
    width="100%"
    height="100%"
    viewBox="0 0 13 15"
    version="1.1" xmlns="http://www.w3.org/2000/svg" xmlns:xlink="http://www.w3.org/1999/xlink" xml:space="preserve" xmlns:serif="http://www.serif.com/" style="fill-rule:evenodd;clip-rule:evenodd;stroke-linejoin:round;stroke-miterlimit:2;">
    <g transform="matrix(1,0,0,1,-2900.897708,-1945.664132)">
        <g transform="matrix(1,0,0,1,410.979043,7)">
            <g transform="matrix(0.955641,0,0,0.955641,588.607549,125.922487)">
                <path d="M2003.065,1905.753C2003.065,1909.479 2000.041,1912.503 1996.315,1912.503C1992.59,1912.503 1989.565,1909.479 1989.565,1905.753C1989.565,1902.26 1992.224,1899.384 1995.626,1899.038L1995.827,1900.99C1993.413,1901.235 1991.527,1903.276 1991.527,1905.753C1991.527,1908.396 1993.673,1910.541 1996.315,1910.541C1998.958,1910.541 2001.103,1908.396 2001.103,1905.753L2003.065,1905.753ZM2002.02,1900.477L1997.357,1904.069L1997.357,1896.885L2002.02,1900.477Z" style="fill:url(#_Linear1);"/>
            </g>
        </g>
    </g>
    <defs>
        <linearGradient id="_Linear1" x1="0" y1="0" x2="1" y2="0" gradientUnits="userSpaceOnUse" gradientTransform="matrix(15.217495,14.447878,-14.447878,15.217495,1989.565345,1896.884695)">
            <stop offset="0" style="stop-color:rgb(65,123,215);stop-opacity:1"/>
            <stop offset="0.35" style="stop-color:rgb(122,109,191);stop-opacity:1"/>
            <stop offset="0.62" style="stop-color:rgb(162,90,161);stop-opacity:1"/>
            <stop offset="1" style="stop-color:rgb(236,147,147);stop-opacity:1"/>
        </linearGradient>
    </defs>
</svg>
